<?xml version="1.0" standalone="no"?>
<!DOCTYPE svg PUBLIC "-//W3C//DTD SVG 20010904//EN"
 "http://www.w3.org/TR/2001/REC-SVG-20010904/DTD/svg10.dtd">
<svg version="1.0" xmlns="http://www.w3.org/2000/svg"
 width="1920.000000pt" height="1080.000000pt" viewBox="0 0 1920.000000 1080.000000"
 preserveAspectRatio="xMidYMid meet">

<g transform="translate(0.000000,1080.000000) scale(0.100000,-0.100000)"
fill="#000000" stroke="none">
<path d="M3615 8824 c-114 -36 -214 -137 -251 -253 -13 -41 -15 -74 -11 -140
5 -73 14 -107 60 -226 142 -363 487 -1259 487 -1265 0 -4 -30 -10 -67 -13 -52
-4 -85 -14 -152 -48 -154 -79 -239 -186 -275 -350 -5 -22 -10 -25 -40 -21
-138 16 -325 -107 -403 -266 l-38 -76 -3 -625 c-3 -543 -1 -639 13 -725 17
-104 69 -264 112 -350 75 -150 221 -328 350 -428 l56 -43 -6 -190 c-4 -104
-11 -296 -17 -425 -18 -417 -40 -970 -46 -1171 l-7 -195 31 -35 c27 -30 36
-34 82 -34 45 0 55 4 80 32 33 36 34 47 51 483 5 146 14 363 19 483 5 121 14
359 20 530 6 172 13 331 16 353 l5 42 33 -10 c93 -29 176 98 115 176 -12 15
-58 45 -103 68 -275 138 -457 358 -548 663 -20 64 -22 103 -27 445 -3 206 -6
376 -5 377 0 2 49 -58 108 -131 178 -224 245 -269 401 -269 115 0 181 27 266
112 l67 66 44 -28 c62 -39 174 -61 246 -47 130 23 246 111 300 228 23 50 27
70 27 155 0 88 2 97 17 93 10 -2 94 -14 188 -27 l170 -23 0 -95 0 -96 -123
-63 c-264 -135 -490 -336 -654 -582 -97 -145 -108 -181 -73 -237 26 -43 72
-66 113 -57 50 11 66 25 108 96 141 240 391 472 633 588 46 21 109 49 140 60
91 35 92 36 88 300 -3 244 -7 260 -63 287 -13 6 -109 23 -214 37 -104 15 -215
32 -245 38 -146 28 -257 142 -276 282 l-7 46 582 0 c609 0 614 0 649 -42 24
-29 332 -929 343 -1001 9 -58 8 -91 -5 -162 -28 -162 -39 -178 -512 -730 -233
-273 -429 -508 -435 -523 -15 -39 -3 -85 32 -118 25 -24 38 -29 80 -28 l49 0
0 -55 c-1 -315 23 -1615 31 -1644 12 -44 56 -77 104 -77 40 0 93 34 106 67 9
25 -1 1073 -17 1710 l-6 252 319 373 c175 205 330 389 344 408 38 51 75 129
105 217 32 95 43 272 25 378 -12 66 -312 940 -352 1022 -26 55 -97 119 -166
150 -43 20 -78 27 -150 31 -80 4 -93 7 -89 21 266 911 440 1507 483 1656 48
168 54 198 50 255 -12 144 -89 260 -215 322 -62 31 -74 33 -167 33 -93 0 -105
-2 -167 -33 -44 -21 -84 -52 -120 -90 -59 -65 -30 8 -454 -1114 -70 -186 -130
-338 -134 -338 -4 0 -80 156 -168 348 -88 191 -209 451 -267 577 -209 452
-239 508 -290 553 -76 66 -145 94 -245 98 -59 3 -100 -1 -135 -12z m213 -243
c16 -11 40 -42 52 -68 13 -27 187 -401 387 -833 267 -578 371 -792 393 -812
53 -49 142 -31 173 34 14 30 318 833 533 1408 92 244 113 278 188 298 95 27
196 -49 196 -146 0 -17 -95 -357 -211 -755 -116 -397 -239 -819 -274 -937
l-62 -215 -429 -5 c-236 -3 -438 -9 -449 -13 -18 -7 -25 6 -77 140 -31 81
-127 330 -213 553 -426 1102 -453 1171 -460 1201 -10 41 11 101 47 137 56 53
142 59 206 13z m123 -1908 c16 -18 102 -203 229 -497 188 -435 202 -472 198
-516 -9 -86 -70 -140 -161 -140 -63 0 -104 31 -155 120 -424 731 -425 732
-430 795 -9 107 40 184 150 240 85 43 126 42 169 -2z m-534 -411 c12 -9 89
-129 171 -267 229 -386 225 -378 220 -434 -6 -56 -36 -104 -80 -127 -38 -20
-107 -20 -145 -1 -30 16 -386 456 -418 517 -26 49 -25 143 2 195 55 106 186
167 250 117z"/>
<path d="M1835 7921 c-49 -20 -78 -83 -63 -138 6 -25 120 -131 543 -507 294
-262 547 -481 562 -487 87 -33 181 68 139 149 -15 29 -1044 954 -1089 979 -25
14 -63 15 -92 4z"/>
<path d="M6638 7443 c-254 -254 -371 -378 -379 -400 -24 -73 33 -143 116 -143
39 0 47 7 412 373 247 247 374 381 378 400 10 39 -2 75 -35 108 -23 24 -37 29
-76 29 l-48 0 -368 -367z"/>
<path d="M9020 7330 c-234 -33 -437 -137 -600 -307 -200 -207 -309 -454 -340
-768 -24 -248 25 -537 125 -736 119 -234 340 -446 559 -535 145 -59 248 -77
431 -77 237 1 405 39 600 138 l100 51 99 -50 c107 -53 164 -63 192 -34 16 15
16 31 3 195 -7 98 -14 336 -15 528 -2 407 0 370 -19 389 -12 12 -53 15 -235
15 l-220 0 -16 -24 c-18 -28 -17 -49 17 -420 14 -164 16 -211 6 -218 -37 -27
-187 -90 -254 -108 -98 -26 -295 -36 -376 -19 -233 48 -441 276 -509 559 -26
109 -28 291 -3 405 43 204 161 387 316 490 142 94 345 117 500 56 88 -35 159
-89 289 -222 69 -70 131 -128 138 -128 27 0 236 219 268 282 19 37 5 71 -73
168 -133 165 -345 294 -575 350 -96 24 -307 34 -408 20z"/>
<path d="M12515 7324 c-55 -7 -133 -13 -173 -13 -78 -1 -105 -10 -121 -40 -7
-12 -5 -117 5 -317 29 -583 29 -1781 -1 -1947 -10 -52 7 -57 219 -57 159 0
196 3 206 15 7 8 15 42 19 75 4 33 10 62 14 66 3 4 30 -14 60 -40 59 -50 171
-106 257 -127 33 -9 104 -14 180 -13 106 1 137 5 205 27 282 92 487 356 536
687 30 205 -18 450 -122 628 -53 88 -200 231 -284 274 -271 139 -585 109 -781
-74 l-66 -62 7 259 c3 143 10 323 16 400 13 208 12 232 -11 255 -22 22 -24 22
-165 4z m725 -1106 c109 -51 202 -161 240 -285 24 -77 27 -212 6 -289 -34
-127 -130 -250 -235 -301 -50 -25 -67 -28 -161 -28 -94 0 -111 3 -163 27 -69
33 -160 121 -199 194 -52 97 -71 240 -47 356 23 111 113 243 207 302 99 62
248 73 352 24z"/>
<path d="M17584 7273 c-18 -19 -18 -162 1 -558 10 -200 15 -538 15 -1016 0
-681 1 -717 18 -732 16 -15 45 -17 194 -17 161 0 176 2 193 20 16 18 17 58 10
717 -7 669 -1 1013 25 1423 12 192 31 177 -230 177 -170 0 -214 -3 -226 -14z"/>
<path d="M15395 7151 c-130 -34 -206 -138 -192 -262 8 -69 45 -129 99 -159 39
-22 54 -25 153 -25 99 0 114 3 153 25 112 64 136 241 46 340 -19 21 -54 48
-77 59 -48 23 -137 34 -182 22z"/>
<path d="M7790 6986 c-133 -57 -248 -115 -268 -137 -41 -44 -22 -142 33 -167
46 -21 82 -13 227 53 162 73 188 96 188 158 0 49 -19 81 -60 102 -38 20 -55
19 -120 -9z"/>
<path d="M7165 6701 c-50 -21 -546 -247 -598 -273 -72 -36 -96 -79 -78 -138
14 -48 40 -70 90 -77 37 -5 74 9 367 142 278 127 329 153 345 179 36 59 15
132 -47 161 -35 17 -49 18 -79 6z"/>
<path d="M1123 6640 c-51 -31 -63 -107 -24 -158 22 -30 271 -132 321 -132 73
0 124 73 100 145 -15 45 -29 54 -180 115 -136 55 -169 60 -217 30z"/>
<path d="M16531 6629 c-77 -13 -184 -53 -249 -91 -82 -48 -205 -170 -267 -262
-106 -162 -149 -309 -148 -516 1 -273 69 -449 237 -615 132 -131 246 -187 447
-221 126 -21 287 -15 404 15 154 40 342 156 413 256 l26 36 -65 127 c-80 154
-86 157 -181 86 -146 -108 -301 -159 -462 -152 -80 3 -101 8 -167 39 -105 50
-188 134 -213 216 -8 25 -46 20 429 59 366 30 527 49 565 69 42 21 88 80 96
121 11 58 -3 212 -26 292 -72 254 -274 461 -515 527 -73 20 -250 28 -324 14z
m236 -393 c94 -48 182 -165 183 -242 0 -26 -5 -33 -26 -38 -48 -12 -359 -44
-498 -52 l-139 -7 6 56 c7 71 46 145 110 209 106 107 245 135 364 74z"/>
<path d="M10899 6600 c-151 -37 -270 -108 -375 -224 -96 -105 -152 -210 -196
-374 -31 -113 -31 -363 0 -477 66 -239 228 -444 426 -540 267 -129 517 -90
769 118 55 46 61 43 71 -35 10 -75 34 -127 62 -134 21 -5 213 9 302 22 57 9
57 12 32 446 -15 269 -20 434 -16 523 7 126 35 378 55 480 13 65 -1 86 -70
107 -75 24 -243 52 -262 45 -26 -10 -46 -49 -58 -113 -7 -32 -13 -60 -15 -62
-1 -2 -32 26 -68 62 -74 72 -186 134 -291 161 -84 21 -269 19 -366 -5z m416
-395 c105 -51 198 -169 230 -290 17 -67 19 -199 4 -264 -27 -119 -127 -249
-233 -304 -56 -29 -69 -31 -161 -32 -92 0 -106 3 -166 31 -128 61 -228 200
-251 352 -36 230 98 459 307 529 67 22 203 11 270 -22z"/>
<path d="M14335 6574 c-33 -7 -103 -18 -155 -24 -52 -7 -103 -16 -112 -21 -28
-15 -30 -43 -9 -126 54 -217 64 -392 55 -954 l-7 -456 22 -22 c20 -20 30 -21
206 -21 l185 0 16 25 c15 23 16 55 4 381 -16 464 -5 639 42 699 11 14 39 36
61 48 39 20 55 22 218 22 129 0 180 3 191 13 24 20 59 331 43 382 -11 34 -64
50 -163 50 -137 0 -239 -33 -372 -119 l-65 -42 -12 70 c-19 118 -24 121 -148
95z"/>
<path d="M15224 6522 c-18 -18 -18 -87 3 -352 14 -169 17 -315 15 -680 -1
-256 0 -477 3 -491 9 -42 41 -49 213 -49 178 0 198 4 209 34 4 11 7 262 8 556
0 312 6 622 13 743 12 180 11 212 -1 230 -14 21 -20 22 -232 23 -173 0 -220
-3 -231 -14z"/>
<path d="M1683 6395 c-33 -33 -35 -39 -30 -81 3 -31 13 -54 28 -69 33 -32 618
-265 665 -265 28 0 44 8 71 35 33 33 35 39 30 81 -3 31 -13 54 -28 69 -33 32
-618 265 -665 265 -28 0 -44 -8 -71 -35z"/>
<path d="M1715 4641 c-656 -199 -635 -190 -635 -276 0 -57 38 -103 90 -111 26
-3 183 40 630 175 557 168 596 181 623 212 26 28 29 38 24 77 -7 60 -40 93
-98 98 -35 3 -167 -34 -634 -175z"/>
<path d="M6555 4696 c-95 -42 -96 -161 -2 -204 23 -11 176 -68 340 -127 288
-105 299 -108 338 -96 45 14 79 58 79 104 0 35 -24 83 -48 96 -26 13 -623 229
-652 235 -14 3 -38 0 -55 -8z"/>
<path d="M9623 4570 c-12 -5 -25 -21 -29 -36 -7 -29 -3 -259 17 -929 9 -312 9
-476 0 -740 -7 -187 -15 -468 -18 -625 -4 -245 -3 -288 10 -305 15 -19 29 -20
654 -22 689 -2 720 0 873 52 146 50 262 124 388 248 181 177 303 395 367 651
36 145 45 221 45 388 0 516 -240 970 -620 1167 -145 76 -346 128 -579 151
-126 12 -1077 12 -1108 0z m1200 -458 c159 -43 312 -145 406 -269 115 -151
168 -310 178 -528 14 -325 -73 -578 -267 -776 -102 -104 -189 -152 -318 -174
-95 -17 -562 -21 -626 -6 -77 19 -71 -56 -71 886 0 933 -5 863 65 884 21 6
136 9 295 7 228 -2 270 -5 338 -24z"/>
<path d="M7534 4340 c-66 -26 -87 -129 -36 -178 40 -40 340 -147 386 -138 50
10 86 56 86 111 0 70 -22 87 -209 155 -166 61 -189 66 -227 50z"/>
<path d="M9180 3918 c-24 -9 -140 -99 -300 -233 -47 -39 -114 -93 -150 -121
-97 -73 -382 -249 -489 -301 -122 -60 -124 -64 -119 -263 3 -129 5 -151 22
-169 10 -11 76 -51 145 -87 244 -129 372 -218 681 -473 200 -166 216 -176 243
-158 11 7 50 73 87 146 62 122 67 137 57 164 -35 100 -445 416 -731 563 -42
21 -76 41 -75 44 0 3 57 33 127 67 137 66 348 202 479 307 96 78 201 190 209
223 4 15 -7 55 -34 117 -70 162 -98 194 -152 174z"/>
<path d="M15973 3918 c-25 -30 -133 -260 -133 -281 0 -57 191 -238 390 -372
113 -76 390 -225 419 -225 27 0 6 -18 -67 -55 -104 -53 -434 -274 -558 -372
-106 -85 -147 -128 -172 -180 -15 -31 -15 -36 7 -81 18 -38 128 -239 136 -250
10 -12 64 20 126 75 262 232 542 428 824 579 58 31 112 65 120 77 12 17 15 56
15 187 0 198 11 180 -160 267 -209 106 -391 232 -741 514 -147 119 -186 141
-206 117z"/>
<path d="M12785 3813 c-243 -52 -463 -225 -603 -474 -43 -76 -98 -247 -113
-348 -18 -125 -6 -322 25 -446 86 -334 313 -561 651 -652 91 -24 117 -26 285
-27 168 0 194 3 281 26 52 14 130 42 172 62 138 66 317 219 317 270 -1 38
-132 279 -161 295 -25 14 -29 12 -110 -49 -91 -69 -209 -129 -304 -155 -85
-23 -249 -31 -316 -15 -132 31 -285 145 -334 251 -13 29 -22 55 -20 57 2 2
113 12 247 23 350 27 774 68 832 81 69 14 99 31 134 74 42 51 56 117 48 225
-12 156 -64 316 -141 435 -52 79 -206 231 -277 273 -78 45 -162 78 -247 96
-91 19 -273 18 -366 -2z m298 -436 c107 -49 205 -169 222 -273 6 -38 4 -42
-18 -48 -89 -22 -540 -66 -681 -66 l-69 0 7 53 c20 150 160 313 305 354 68 19
167 11 234 -20z"/>
<path d="M13980 3712 l-25 -20 0 -358 c0 -462 2 -470 158 -704 179 -268 403
-573 491 -667 l54 -58 169 -3 c162 -3 169 -2 203 20 19 13 72 73 118 133 116
152 428 622 481 724 44 84 44 86 54 230 11 174 -5 557 -27 640 -21 82 -23 83
-221 76 -289 -10 -271 6 -250 -236 17 -197 19 -325 5 -452 -8 -80 -15 -99 -69
-202 -64 -122 -155 -271 -229 -374 l-46 -65 -43 50 c-70 79 -241 341 -303 464
-45 89 -53 181 -45 507 l6 272 -23 15 c-17 11 -72 16 -228 22 -196 6 -206 6
-230 -14z"/>
</g>
</svg>
