<svg xmlns="http://www.w3.org/2000/svg" width="1920" height="1080" viewBox="0 0 1920 1080" version="1.1"><path d="M 369 219.207 C 361.211 221.313, 355.790 230.353, 357.786 237.909 C 358.308 239.884, 364.236 255.675, 370.961 273 C 386.634 313.383, 398.220 343.344, 416.124 389.800 C 429.359 424.138, 430.659 427.039, 432.500 426.343 C 433.600 425.926, 453.797 425.342, 477.383 425.043 L 520.266 424.500 547.598 331 C 562.630 279.575, 574.945 236.023, 574.965 234.218 C 575.074 224.070, 565.295 216.423, 555.624 219.093 C 548.519 221.055, 545.588 225.073, 539.639 241 C 521.997 288.235, 484.581 387.008, 483.275 389.794 C 480.218 396.314, 471.310 398.101, 466.048 393.250 C 463.860 391.233, 453.493 369.847, 427.147 313 C 407.392 270.375, 389.980 232.871, 388.453 229.658 C 384.301 220.916, 377.061 217.026, 369 219.207 M 380.007 411.527 C 371.624 415.504, 368.007 418.744, 365.265 424.731 C 363.265 429.100, 362.855 431.321, 363.191 435.962 C 363.687 442.827, 363.043 441.627, 406.163 515.979 C 411.329 524.887, 415.365 528, 421.747 528 C 430.757 528, 436.948 522.600, 437.772 514.021 C 438.268 508.864, 440.328 514.069, 410.257 444.500 C 402.822 427.297, 396.640 414.369, 395.062 412.720 C 391.216 408.702, 386.716 408.345, 380.007 411.527 M 441.354 452.567 C 443.100 465.304, 453.898 477.406, 466.142 480.349 C 467.595 480.698, 478.395 482.359, 490.142 484.040 C 515.936 487.730, 515.243 487.567, 518.155 490.662 C 520.431 493.082, 520.517 493.818, 521.097 515.827 C 521.832 543.758, 522.041 543.165, 509.746 547.978 C 479.515 559.814, 451.472 583.796, 435.116 611.802 C 431.356 618.240, 429.284 620.098, 424.323 621.481 C 418.937 622.983, 411.013 616.099, 411.004 609.910 C 410.999 606.910, 418.506 594.034, 426.643 583.084 C 434.510 572.496, 452.747 554.773, 464.019 546.760 C 469.233 543.053, 479.012 537.219, 485.750 533.797 L 498 527.574 498 517.951 L 498 508.327 481.250 506.087 C 472.038 504.855, 463.600 503.636, 462.500 503.379 C 460.604 502.936, 460.500 503.422, 460.500 512.706 C 460.500 521.222, 460.153 523.241, 457.840 528.175 C 453.158 538.162, 444.714 545.711, 433.967 549.518 C 424.676 552.809, 408.880 550.722, 401.303 545.202 L 398.647 543.267 393.406 548.929 C 382.206 561.025, 366.906 564.634, 351.353 558.848 C 344.363 556.248, 338.622 550.934, 326.753 536.078 C 321.225 529.160, 316.122 522.868, 315.412 522.096 C 314.353 520.945, 314.105 525.480, 314.034 547.215 C 313.986 561.803, 314.440 579.027, 315.041 585.490 C 317.434 611.202, 326.946 631.916, 344.476 649.590 C 353.436 658.623, 360.605 663.773, 372.644 669.823 C 382.134 674.592, 385 677.672, 385 683.100 C 385 690.309, 376.899 696.433, 370.554 694.021 C 368.238 693.140, 368.082 693.313, 367.600 697.295 C 367.320 699.608, 366.604 715.450, 366.007 732.500 C 365.411 749.550, 364.507 773.400, 363.997 785.500 C 363.488 797.600, 362.613 819.425, 362.052 834 C 360.358 878.007, 360.294 878.595, 356.797 882.578 L 353.793 886 441.002 886 L 528.212 886 525.183 883.171 C 523.370 881.477, 521.947 878.970, 521.636 876.921 C 521.205 874.083, 518.918 734.109, 518.981 714.427 L 519 708.354 514.067 708.427 C 509.923 708.488, 508.646 708.032, 506.080 705.575 C 502.611 702.253, 501.389 697.737, 502.891 693.787 C 503.454 692.306, 523.052 668.763, 546.441 641.469 C 593.733 586.283, 594.844 584.700, 597.641 568.492 C 598.873 561.350, 598.964 558.126, 598.098 552.298 C 596.533 541.775, 565.752 454.352, 562.432 451 L 559.956 448.500 500.339 448.227 L 440.722 447.954 441.354 452.567 M 327.500 454.203 C 318.065 460.931, 314.662 466.574, 314.657 475.500 C 314.655 479.362, 315.301 482.740, 316.471 484.980 C 319.706 491.172, 355.260 535.083, 358.320 536.666 C 368.138 541.743, 379.699 535.190, 380.780 523.935 C 381.324 518.277, 381.531 518.683, 358.417 480 C 350.037 465.975, 342.246 453.938, 341.104 453.250 C 337.831 451.280, 330.919 451.764, 327.500 454.203" stroke="none" fill="#c0a8a0" fill-rule="evenodd"/><path d="M 361.836 196.919 C 358.721 197.915, 354.623 199.688, 352.730 200.858 C 348.332 203.576, 340.731 211.686, 338.451 216.093 C 334.302 224.113, 332.913 235.506, 335.111 243.500 C 336.029 246.841, 367.134 328.047, 384.762 373.125 L 389.699 385.750 383.658 386.297 C 374.896 387.092, 360.616 394.377, 353.164 401.856 C 347.220 407.821, 342.626 415.954, 340.757 423.822 L 339.645 428.500 333.573 428.666 C 326.038 428.872, 320.734 430.748, 313.174 435.882 C 302.484 443.141, 295.492 452.718, 292.399 464.336 C 290.274 472.315, 290.399 583.744, 292.548 597 C 297.642 628.437, 314.092 656.078, 340.754 678.002 L 345.009 681.500 344.045 702 C 343.515 713.275, 342.614 733.975, 342.041 748 C 341.469 762.025, 340.317 790.150, 339.481 810.500 C 338.644 830.850, 337.857 854.844, 337.730 863.819 L 337.500 880.139 340.766 883.069 C 343.434 885.464, 344.925 886, 348.912 886 C 353.217 886, 354.147 885.596, 356.797 882.578 C 360.294 878.595, 360.358 878.007, 362.052 834 C 362.613 819.425, 363.488 797.600, 363.997 785.500 C 364.507 773.400, 365.411 749.550, 366.007 732.500 C 366.604 715.450, 367.320 699.608, 367.600 697.295 C 368.082 693.313, 368.238 693.140, 370.554 694.021 C 376.899 696.433, 385 690.309, 385 683.100 C 385 677.672, 382.134 674.592, 372.644 669.823 C 360.605 663.773, 353.436 658.623, 344.476 649.590 C 326.946 631.916, 317.434 611.202, 315.041 585.490 C 314.440 579.027, 313.986 561.803, 314.034 547.215 C 314.105 525.480, 314.353 520.945, 315.412 522.096 C 316.122 522.868, 321.225 529.160, 326.753 536.078 C 338.622 550.934, 344.363 556.248, 351.353 558.848 C 366.906 564.634, 382.206 561.025, 393.406 548.929 L 398.647 543.267 401.303 545.202 C 408.880 550.722, 424.676 552.809, 433.967 549.518 C 444.714 545.711, 453.158 538.162, 457.840 528.175 C 460.153 523.241, 460.500 521.222, 460.500 512.706 C 460.500 503.422, 460.604 502.936, 462.500 503.379 C 463.600 503.636, 472.038 504.855, 481.250 506.087 L 498 508.327 498 517.951 L 498 527.574 485.750 533.797 C 479.012 537.219, 469.233 543.053, 464.019 546.760 C 452.747 554.773, 434.510 572.496, 426.643 583.084 C 418.506 594.034, 410.999 606.910, 411.004 609.910 C 411.013 616.099, 418.937 622.983, 424.323 621.481 C 429.284 620.098, 431.356 618.240, 435.116 611.802 C 451.472 583.796, 479.515 559.814, 509.746 547.978 C 522.041 543.165, 521.832 543.758, 521.097 515.827 C 520.517 493.818, 520.431 493.082, 518.155 490.662 C 515.243 487.567, 515.936 487.730, 490.142 484.040 C 478.395 482.359, 467.595 480.698, 466.142 480.349 C 453.898 477.406, 443.100 465.304, 441.354 452.567 L 440.722 447.954 500.339 448.227 L 559.956 448.500 562.432 451 C 565.752 454.352, 596.533 541.775, 598.098 552.298 C 598.964 558.126, 598.873 561.350, 597.641 568.492 C 594.844 584.700, 593.733 586.283, 546.441 641.469 C 523.052 668.763, 503.454 692.306, 502.891 693.787 C 501.389 697.737, 502.611 702.253, 506.080 705.575 C 508.646 708.032, 509.923 708.488, 514.067 708.427 L 519 708.354 518.981 714.427 C 518.918 734.109, 521.205 874.083, 521.636 876.921 C 522.441 882.231, 527.111 886, 532.883 886 C 535.584 886, 538.537 885.312, 539.883 884.369 C 544.813 880.916, 544.853 880.329, 543.977 824.500 C 543.527 795.900, 542.880 752.250, 542.537 727.500 L 541.913 682.500 573.930 645.170 C 591.539 624.638, 607.530 605.307, 609.466 602.212 C 620.222 585.016, 624.285 564.059, 620.589 544.838 C 618.919 536.154, 587.891 447.363, 584.424 441.349 C 578.338 430.790, 567.373 425, 553.462 425 C 548.808 425, 545 424.577, 545 424.060 C 545 423.543, 550.812 403.180, 557.915 378.810 C 565.018 354.439, 572.928 327.300, 575.494 318.500 C 578.059 309.700, 582.995 292.825, 586.463 281 C 599.910 235.149, 599.585 236.615, 598.088 228.519 C 595.626 215.201, 588.255 205.207, 576.685 199.502 C 560.480 191.511, 542.983 194.758, 530.535 208.066 C 524.996 213.987, 524.625 214.788, 512.363 247.276 C 507.127 261.149, 496.388 289.600, 488.499 310.500 C 480.611 331.400, 473.649 349.826, 473.028 351.447 L 471.900 354.393 468.606 346.947 C 456.953 320.604, 407.208 214.758, 404.879 211.351 C 395.868 198.168, 377.348 191.958, 361.836 196.919 M 369 219.207 C 361.211 221.313, 355.790 230.353, 357.786 237.909 C 358.308 239.884, 364.236 255.675, 370.961 273 C 386.634 313.383, 398.220 343.344, 416.124 389.800 C 429.359 424.138, 430.659 427.039, 432.500 426.343 C 433.600 425.926, 453.797 425.342, 477.383 425.043 L 520.266 424.500 547.598 331 C 562.630 279.575, 574.945 236.023, 574.965 234.218 C 575.074 224.070, 565.295 216.423, 555.624 219.093 C 548.519 221.055, 545.588 225.073, 539.639 241 C 521.997 288.235, 484.581 387.008, 483.275 389.794 C 480.218 396.314, 471.310 398.101, 466.048 393.250 C 463.860 391.233, 453.493 369.847, 427.147 313 C 407.392 270.375, 389.980 232.871, 388.453 229.658 C 384.301 220.916, 377.061 217.026, 369 219.207 M 184.445 287.093 C 177.007 289.194, 173.692 298.520, 178.162 304.768 C 182.224 310.446, 284.983 400.936, 288.403 401.847 C 295.489 403.734, 303 398.187, 303 391.066 C 303 388.920, 302.719 386.430, 302.375 385.534 C 301.877 384.236, 199.604 292.565, 193.994 288.388 C 191.685 286.669, 187.807 286.143, 184.445 287.093 M 700.500 299.147 C 697.384 300.839, 628.047 370.165, 626.435 373.200 C 621.443 382.596, 629.828 393.168, 639.878 390.153 C 645.010 388.614, 716.489 316.928, 717.275 312.532 C 718.951 303.160, 708.486 294.810, 700.500 299.147 M 894 347.893 C 850.844 357.342, 818.976 391.920, 809.282 439.818 C 806.732 452.417, 806.784 485.163, 809.374 497 C 814.615 520.958, 824.779 540.417, 840.828 557.215 C 855.122 572.177, 870.754 581.639, 889.500 586.678 C 898.681 589.146, 901.097 589.371, 919 589.430 C 934.483 589.480, 940.251 589.110, 947 587.632 C 959.249 584.951, 970.746 580.831, 980.580 575.599 L 989.166 571.032 999.326 576.016 C 1010.765 581.627, 1015.656 582.344, 1019.088 578.912 C 1020.884 577.116, 1021.094 576.033, 1020.591 571.162 C 1018.741 553.241, 1017.830 529.757, 1017.884 501.381 C 1017.943 470.799, 1017.853 469.177, 1016.002 467.502 C 1014.286 465.948, 1011.536 465.725, 992.437 465.592 C 975.816 465.476, 970.374 465.750, 968.908 466.777 C 966.348 468.570, 966.367 477.954, 968.988 505 C 971.835 534.385, 972.541 531.037, 962.458 535.963 C 945.780 544.111, 923.608 547.698, 909 544.612 C 897.192 542.118, 887.798 536.932, 879.022 528.064 C 859.576 508.414, 851.438 480.691, 856.535 451.461 C 859.474 434.606, 869.201 416.329, 880.673 406.104 C 894.815 393.499, 914.731 388.174, 931.448 392.528 C 943.579 395.688, 950.429 400.307, 965.069 415.198 C 975.090 425.391, 979.274 429.003, 981.069 429.010 C 982.835 429.018, 985.930 426.489, 992.389 419.760 C 1003.767 407.907, 1009 400.980, 1009 397.773 C 1009 391.145, 990.964 371.472, 976.804 362.653 C 967.761 357.022, 955.792 351.806, 945.127 348.848 C 934.031 345.771, 906.076 345.249, 894 347.893 M 1255.790 346.544 C 1255.491 346.843, 1248.389 347.469, 1240.009 347.936 C 1226.646 348.680, 1224.520 349.036, 1222.722 350.833 L 1220.673 352.883 1222.586 396.691 C 1224.828 448.007, 1225.090 535.557, 1223.089 564.338 C 1221.939 580.881, 1221.975 582.314, 1223.579 584.088 C 1225.166 585.841, 1226.865 586, 1243.964 586 C 1257.517 586, 1263.095 585.651, 1264.364 584.723 C 1266.261 583.336, 1267.938 577.487, 1267.976 572.129 L 1268 568.757 1273.250 573.187 C 1280.188 579.041, 1284 581.232, 1293 584.541 C 1299.281 586.851, 1302.561 587.375, 1313.180 587.765 C 1328.213 588.319, 1337.057 586.720, 1347.602 581.543 C 1356.800 577.027, 1359.230 575.269, 1367.314 567.283 C 1379.762 554.986, 1388.049 539.649, 1391.648 522.246 C 1394.126 510.262, 1393.106 486.297, 1389.624 474.703 C 1381.601 447.992, 1363.388 427.788, 1340.631 420.356 C 1329.952 416.869, 1310.226 415.939, 1299.613 418.423 C 1290.530 420.549, 1280.566 425.891, 1273.126 432.624 L 1267.091 438.085 1267.565 429.793 C 1268.164 419.322, 1270 362.967, 1270 355.064 C 1270 347.478, 1268.629 346, 1261.595 346 C 1258.701 346, 1256.089 346.245, 1255.790 346.544 M 1758.139 352.815 C 1755.793 355.116, 1755.782 355.233, 1756.418 371.315 C 1756.770 380.217, 1757.608 397.625, 1758.279 410 C 1759.081 424.775, 1759.413 457.879, 1759.246 506.420 C 1759.024 571.305, 1759.179 580.625, 1760.519 582.670 C 1762.029 584.974, 1762.255 585, 1781 585 C 1799.895 585, 1799.959 584.993, 1801.524 582.604 C 1802.933 580.454, 1803.001 573.952, 1802.192 519.354 C 1801.288 458.320, 1801.817 417.799, 1804.062 376.169 C 1805.148 356.039, 1805.109 353.681, 1803.672 352.243 C 1802.320 350.891, 1798.916 350.637, 1781.289 350.574 C 1760.854 350.501, 1760.460 350.539, 1758.139 352.815 M 1535.463 365.591 C 1525.521 369.121, 1520 377.249, 1520 388.356 C 1520 398.244, 1523.476 404.113, 1532 408.614 C 1537.326 411.427, 1554.006 411.252, 1559.500 408.325 C 1567.613 404.004, 1571 398.094, 1571 388.262 C 1571 383.155, 1570.430 380.298, 1568.750 376.976 C 1566.180 371.896, 1559.686 366.562, 1554.225 365.046 C 1549.086 363.618, 1540.300 363.874, 1535.463 365.591 M 768.178 385.444 C 751.863 393.093, 749.500 395.187, 749.500 402.003 C 749.500 406.197, 749.970 407.432, 752.550 410.011 C 757.940 415.402, 760.764 415.125, 777.635 407.551 C 785.811 403.881, 793.513 399.756, 794.750 398.384 C 796.510 396.431, 797 394.687, 797 390.367 C 797 385.598, 796.602 384.448, 794.077 381.923 C 789.346 377.192, 784.323 377.875, 768.178 385.444 M 380.007 411.527 C 371.624 415.504, 368.007 418.744, 365.265 424.731 C 363.265 429.100, 362.855 431.321, 363.191 435.962 C 363.687 442.827, 363.043 441.627, 406.163 515.979 C 411.329 524.887, 415.365 528, 421.747 528 C 430.757 528, 436.948 522.600, 437.772 514.021 C 438.268 508.864, 440.328 514.069, 410.257 444.500 C 402.822 427.297, 396.640 414.369, 395.062 412.720 C 391.216 408.702, 386.716 408.345, 380.007 411.527 M 684.048 423.817 C 657 436.134, 651.298 439.086, 649.804 441.547 C 645.017 449.430, 650.550 460, 659.464 460 C 661.794 460, 721.566 433.563, 726.664 430.277 C 727.854 429.510, 729.593 427.269, 730.529 425.298 C 732.722 420.676, 731.294 415.267, 726.905 411.574 C 721.575 407.089, 719.448 407.696, 684.048 423.817 M 113.449 414.551 C 105.689 418.381, 104.899 430.333, 112.108 434.835 C 115.897 437.202, 139.111 446, 141.566 446 C 150.049 446, 155.544 436.678, 151.846 428.561 C 150.260 425.081, 148.033 423.798, 133.548 418.019 C 119.936 412.589, 118.076 412.268, 113.449 414.551 M 1647.808 417.547 C 1618.381 424.683, 1593.669 452.519, 1587.461 485.525 C 1585.220 497.436, 1585.882 518.054, 1588.873 529.500 C 1595.246 553.892, 1612.553 573.890, 1635.074 582.885 C 1647.693 587.925, 1657.068 589.302, 1674.877 588.732 C 1693.201 588.146, 1700.569 586.383, 1714.266 579.308 C 1724.996 573.767, 1739 561.315, 1739 557.316 C 1739 554.703, 1728.841 533.984, 1726.328 531.471 C 1723.872 529.014, 1721.410 529.769, 1714.303 535.160 C 1702.355 544.221, 1689.450 549.242, 1674.654 550.582 C 1663.234 551.617, 1651.673 547.954, 1642.255 540.316 C 1637.570 536.518, 1632.450 529.642, 1631.507 525.883 L 1630.898 523.458 1665.199 520.679 C 1724.734 515.854, 1730.246 514.901, 1735.911 508.448 C 1740.132 503.641, 1741.340 498.253, 1740.492 488.024 C 1739.172 472.116, 1733.925 457.477, 1725.363 445.813 C 1715.565 432.465, 1698.795 421.006, 1684 417.549 C 1675.867 415.648, 1655.643 415.647, 1647.808 417.547 M 1093.669 418.529 C 1064.640 424.016, 1042.632 444.887, 1033.374 475.712 C 1029.878 487.350, 1028.874 511.264, 1031.374 523.351 C 1034.852 540.171, 1042.460 554.238, 1055 567.037 C 1069.784 582.125, 1082.499 587.932, 1102.500 588.728 C 1121.074 589.467, 1132.029 585.706, 1149.351 572.641 L 1157.845 566.235 1158.491 571.367 C 1159.336 578.071, 1160.883 583.077, 1162.781 585.250 C 1164.611 587.345, 1172.956 587.480, 1188.401 585.664 C 1203.357 583.906, 1202.386 587.896, 1199.640 539.500 C 1196.894 491.122, 1197.255 479.968, 1202.694 444.910 C 1203.597 439.085, 1204.042 433.552, 1203.682 432.615 C 1203.323 431.677, 1201.379 430.221, 1199.363 429.378 C 1193.812 427.059, 1179.156 424.046, 1173.307 424.022 C 1166.443 423.993, 1165.525 425.216, 1162.558 438.343 L 1161.915 441.185 1157.074 436.267 C 1145.176 424.180, 1130.429 417.933, 1112.500 417.385 C 1105.579 417.174, 1098.596 417.598, 1093.669 418.529 M 1435.500 421.626 C 1431.650 422.417, 1423.643 423.685, 1417.707 424.445 C 1411.771 425.204, 1406.221 426.401, 1405.374 427.105 C 1403.486 428.671, 1403.831 433.538, 1406.784 447 C 1410.475 463.833, 1411.132 476.936, 1410.945 530 C 1410.847 557.775, 1411.079 581.253, 1411.461 582.173 C 1412.562 584.827, 1414.467 585.138, 1433 585.688 C 1447.706 586.124, 1450.819 585.963, 1452.500 584.681 C 1454.452 583.192, 1454.500 581.981, 1454.500 533.828 C 1454.500 479.307, 1454.598 478.316, 1460.501 473.133 C 1466.321 468.024, 1474.093 466.891, 1493.092 468.385 L 1503.684 469.217 1505.720 466.628 C 1508.167 463.518, 1510.323 446.101, 1509.819 433.510 C 1509.510 425.764, 1509.408 425.474, 1506.500 424.010 C 1502.213 421.852, 1484.399 422.091, 1476.552 424.412 C 1469.938 426.368, 1461.783 430.345, 1455.066 434.891 C 1452.628 436.541, 1450.265 437.664, 1449.816 437.387 C 1449.367 437.109, 1449 435.094, 1449 432.909 C 1449 427.070, 1445.549 419.708, 1443 420.109 C 1442.725 420.153, 1439.350 420.835, 1435.500 421.626 M 1522.655 426.829 C 1520.477 429.235, 1520.457 442.174, 1522.585 471.591 C 1523.775 488.048, 1524.086 504.360, 1523.835 537.139 C 1523.514 578.904, 1523.582 580.869, 1525.405 582.889 C 1527.214 584.894, 1528.251 585, 1546 585 C 1563.416 585, 1564.813 584.864, 1566.499 583.001 C 1568.205 581.116, 1568.270 578.711, 1567.646 540.751 C 1567.264 517.450, 1567.398 493.552, 1567.967 484 C 1568.507 474.925, 1569.247 458.725, 1569.611 448 C 1570.262 428.813, 1570.238 428.469, 1568.092 426.555 C 1566.042 424.726, 1565.265 424.676, 1555.205 425.717 C 1548.745 426.386, 1542.121 426.497, 1538.500 425.997 C 1528.421 424.606, 1524.480 424.813, 1522.655 426.829 M 170.190 438.026 C 165.607 440.820, 163.446 446.207, 164.926 451.148 C 165.543 453.208, 167.165 455.771, 168.530 456.845 C 171.839 459.448, 230.811 483.005, 234 482.998 C 237.913 482.989, 242.964 479.330, 244.658 475.276 C 246.576 470.685, 245.205 465.093, 241.435 462.128 C 238.184 459.570, 179.047 435.999, 175.895 436.004 C 174.578 436.006, 172.010 436.916, 170.190 438.026 M 327.500 454.203 C 318.065 460.931, 314.662 466.574, 314.657 475.500 C 314.655 479.362, 315.301 482.740, 316.471 484.980 C 319.706 491.172, 355.260 535.083, 358.320 536.666 C 368.138 541.743, 379.699 535.190, 380.780 523.935 C 381.324 518.277, 381.531 518.683, 358.417 480 C 350.037 465.975, 342.246 453.938, 341.104 453.250 C 337.831 451.280, 330.919 451.764, 327.500 454.203 M 1652.176 456.150 C 1641.816 460.130, 1631.235 473.525, 1629.459 484.909 L 1628.771 489.317 1644.635 488.697 C 1662.117 488.013, 1692.926 484.474, 1694.422 482.978 C 1695.906 481.494, 1692.435 471.857, 1688.613 466.852 C 1679.778 455.281, 1665.416 451.063, 1652.176 456.150 M 1302.226 456.112 C 1280.629 459.708, 1264.919 483.935, 1268.044 508.826 C 1272.089 541.041, 1304.269 558.870, 1329.337 542.784 C 1346.373 531.852, 1354.357 505.504, 1346.800 485.152 C 1339.054 464.290, 1321.562 452.894, 1302.226 456.112 M 1109.357 457.018 C 1093.720 459.260, 1079.977 472.472, 1075.533 489.535 C 1068.463 516.677, 1084.813 544.504, 1109.879 547.989 C 1126.802 550.342, 1142.231 541.507, 1150.437 524.764 C 1157.297 510.768, 1157.472 495.119, 1150.924 481.057 C 1142.655 463.297, 1127.339 454.440, 1109.357 457.018 M 173 614.812 C 140.825 624.565, 113.492 633.110, 112.260 633.802 C 106.788 636.874, 105.347 645.882, 109.533 650.857 C 115.154 657.538, 112.380 658.048, 179.178 638.035 C 233.603 621.729, 239.767 619.672, 242.229 616.989 C 245.793 613.106, 246.554 609.741, 244.869 605.314 C 243.197 600.922, 239.608 598.092, 234.977 597.514 C 232.452 597.199, 215.479 601.936, 173 614.812 M 651.400 612.400 C 648.522 615.278, 648 616.504, 648 620.384 C 648 628.792, 649.336 629.593, 684.963 642.554 C 702.267 648.849, 717.927 654, 719.762 654 C 721.598 654, 724.366 653.345, 725.915 652.544 C 728.733 651.087, 732 645.694, 732 642.500 C 732 639.348, 728.748 633.921, 726.013 632.506 C 718.718 628.734, 662.178 609, 658.666 609 C 655.603 609, 654.094 609.706, 651.400 612.400 M 962.999 622.196 C 961.963 622.579, 960.407 623.975, 959.540 625.298 C 958.120 627.465, 958.085 631.506, 959.187 666.102 C 960.821 717.464, 960.804 791.315, 959.145 841.500 C 958.161 871.266, 958.087 883.258, 958.877 885.268 C 960.746 890.027, 963.022 890.290, 992.500 889.156 C 1011.165 888.437, 1027.680 888.437, 1046 889.155 C 1060.575 889.726, 1077.498 889.926, 1083.607 889.600 C 1109.622 888.212, 1132.241 878.450, 1150.869 860.572 C 1171.725 840.555, 1185.079 815.416, 1191.191 784.665 C 1194.381 768.617, 1194.349 740.146, 1191.124 725 C 1185.164 697.007, 1172.821 672.706, 1156.055 655.950 C 1137.287 637.192, 1113.802 627.198, 1078.500 622.943 C 1067.583 621.627, 966.307 620.972, 962.999 622.196 M 753.270 645.471 C 747.067 648.190, 744.371 655.950, 747.517 662.033 C 749.431 665.734, 751.779 666.927, 770.333 673.620 C 786.785 679.555, 788.824 679.702, 794.024 675.326 C 796.658 673.110, 797 672.193, 797 667.345 C 797 658.010, 796.749 657.808, 775.633 650.120 C 758.892 644.025, 757.314 643.697, 753.270 645.471 M 1025 666.585 C 1023.625 666.839, 1020.638 667.531, 1018.362 668.122 L 1014.225 669.197 1013.468 689.348 C 1012.495 715.284, 1012.499 797.839, 1013.476 822.743 L 1014.231 841.985 1018.365 843.243 C 1021.248 844.119, 1030.673 844.500, 1049.500 844.500 C 1079.691 844.500, 1086.582 843.548, 1098.125 837.780 C 1110.751 831.470, 1125.239 814.585, 1132.037 798.257 C 1138.910 781.746, 1141.864 761.698, 1140.041 743.930 C 1138.122 725.230, 1134.235 713.663, 1125.387 700.316 C 1114.355 683.676, 1098.068 672.753, 1077.884 668.457 C 1070.680 666.924, 1030.802 665.512, 1025 666.585 M 913.487 690.401 C 910.744 692.272, 900.850 700.172, 891.500 707.956 C 869.858 725.975, 845.932 741.963, 823.381 753.473 C 817.306 756.574, 813.885 758.956, 813.131 760.611 C 812.442 762.124, 812 769.272, 812 778.912 C 812 793.278, 812.186 794.967, 814.024 797.303 C 815.137 798.718, 822.500 803.212, 830.386 807.290 C 853.874 819.434, 862.635 825.674, 907.877 862.480 C 920.834 873.021, 920.576 873.097, 929.722 856 C 933.873 848.240, 936.955 841.252, 936.972 839.564 C 936.995 837.134, 935.067 834.720, 925.750 825.522 C 910.312 810.282, 887.508 794.010, 864.653 781.926 L 855.806 777.249 866.153 772.143 C 893.613 758.593, 930.366 730.866, 936.439 719.118 C 938.157 715.796, 938.139 715.618, 935.427 709.118 C 928.685 692.956, 924.718 687, 920.698 687 C 919.474 687, 916.229 688.531, 913.487 690.401 M 1590.565 699.636 C 1586.938 706.587, 1583.699 713.350, 1583.369 714.666 C 1582.508 718.097, 1586.446 723.305, 1598.871 735.168 C 1611.762 747.476, 1631.032 760.487, 1650.161 769.800 C 1657.729 773.485, 1663.936 776.725, 1663.954 777 C 1663.972 777.275, 1660.069 779.722, 1655.280 782.437 C 1645.307 788.092, 1620.638 804.295, 1609.827 812.291 C 1599.123 820.208, 1591.243 827.129, 1587.391 831.996 C 1582.226 838.524, 1582.637 840.957, 1591.607 856.943 C 1595.790 864.399, 1599.356 870.654, 1599.531 870.841 C 1600.567 871.953, 1605.404 868.764, 1614.348 861.075 C 1643.530 835.984, 1669.789 817.733, 1695 805.016 C 1708.965 797.972, 1708.441 798.956, 1708.813 779.113 C 1709.192 758.923, 1709.317 759.172, 1695.578 752.664 C 1676.474 743.614, 1646.681 722.893, 1612.157 694.645 C 1598.835 683.744, 1598.864 683.738, 1590.565 699.636 M 1281.360 697.408 C 1271.443 699.303, 1267.788 700.588, 1257.836 705.681 C 1232.776 718.503, 1214.063 744.090, 1207.422 774.611 C 1204.942 786.006, 1205.095 808.475, 1207.736 821.005 C 1215.233 856.561, 1239.507 882.306, 1273.808 891.079 C 1299.141 897.558, 1328.070 895.024, 1349.588 884.442 C 1359.849 879.395, 1374.028 868.449, 1378.454 862.158 L 1381.407 857.959 1375.954 846.832 C 1367.977 830.556, 1365.562 827, 1362.486 827 C 1360.956 827, 1357.334 828.988, 1353.479 831.943 C 1335.248 845.916, 1312.506 852.870, 1294.444 849.995 C 1278.121 847.397, 1260.523 834.103, 1256.614 821.418 C 1255.992 819.403, 1256.479 819.296, 1271.736 818.115 C 1306.591 815.415, 1345.131 811.898, 1356 810.425 C 1369.414 808.608, 1374.003 806.509, 1378.456 800.156 L 1381.500 795.812 1381.408 781.656 C 1381.329 769.291, 1380.973 766.361, 1378.600 758.500 C 1369.762 729.230, 1346.658 706.057, 1319.144 698.866 C 1309.211 696.271, 1290.991 695.567, 1281.360 697.408 M 1399.315 707.036 C 1398.114 707.504, 1396.653 708.780, 1396.069 709.871 C 1395.391 711.139, 1394.947 724.058, 1394.839 745.677 C 1394.604 792.850, 1394.627 792.944, 1412.716 820 C 1434.681 852.853, 1460.167 886.387, 1465.287 889.174 C 1467.947 890.621, 1488.641 891.525, 1496.532 890.539 C 1503.328 889.690, 1505.785 887.502, 1517.406 871.953 C 1526.917 859.227, 1556.043 815.544, 1562.416 804.447 C 1568.379 794.064, 1568.987 790.093, 1568.993 761.500 C 1569.001 723.853, 1566.853 708.754, 1561.288 707.357 C 1559.887 707.006, 1550.137 707.041, 1539.621 707.434 C 1515.052 708.354, 1516.448 707.303, 1517.622 724 C 1518.105 730.875, 1518.500 746.850, 1518.500 759.500 L 1518.500 782.500 1515.233 789.398 C 1509.366 801.787, 1487.923 836.694, 1485.112 838.430 C 1483.669 839.322, 1477.140 831.328, 1467.838 817.279 C 1448.411 787.940, 1447.323 785.457, 1446.016 767.440 C 1445.304 757.616, 1445.342 747.534, 1446.147 733.295 C 1447.483 709.649, 1447.201 708.512, 1439.769 707.610 C 1431.597 706.618, 1401.485 706.190, 1399.315 707.036 M 1283.005 741.668 C 1269.385 746.433, 1256.467 762.080, 1255.191 775.359 L 1254.716 780.312 1272.108 779.694 C 1288.268 779.121, 1303.107 777.701, 1322.368 774.886 L 1330.236 773.735 1329.622 769.261 C 1328.222 759.044, 1317.198 746.088, 1306.497 742.085 C 1299.765 739.566, 1289.532 739.384, 1283.005 741.668" stroke="none" fill="#335b63" fill-rule="evenodd"/></svg>